<svg width="23" height="34" viewBox="0 0 23 34" fill="none" xmlns="http://www.w3.org/2000/svg">
<path d="M21.8576 28.3333H21.5108L21.7125 27.7281C21.8087 27.4392 21.8577 27.1367 21.8576 26.8322V20.4C21.8593 20.1779 21.8165 19.9577 21.7315 19.7525C21.6465 19.5473 21.5211 19.3613 21.3629 19.2055C21.1266 18.9734 20.829 18.8137 20.505 18.7452C20.181 18.6767 19.8441 18.7023 19.5342 18.819C19.4589 18.5353 19.3084 18.2773 19.0985 18.0721C18.8327 17.8142 18.492 17.6474 18.1253 17.5958C17.7586 17.5442 17.385 17.6104 17.0585 17.7848C16.9934 17.6836 16.9174 17.5899 16.8318 17.5055C16.603 17.2795 16.316 17.1216 16.0026 17.0495C15.6893 16.9773 15.3621 16.9938 15.0576 17.0969V13.0333C15.0593 12.8112 15.0165 12.591 14.9315 12.3858C14.8465 12.1806 14.7211 11.9946 14.5629 11.8388C14.3885 11.6602 14.1765 11.5228 13.9423 11.4364C13.7081 11.35 13.4577 11.317 13.2091 11.3396C12.7784 11.3875 12.381 11.594 12.0943 11.9188C11.8075 12.2436 11.6518 12.6635 11.6576 13.0968V19.8333H11.0909C10.64 19.8333 10.2076 20.0124 9.8888 20.3313C9.56999 20.6501 9.39089 21.0825 9.39089 21.5333V26.5138C9.3901 27.0732 9.5558 27.6202 9.86689 28.0851L10.0324 28.3333H9.39089C9.2406 28.3333 9.09646 28.393 8.99019 28.4993C8.88392 28.6056 8.82422 28.7497 8.82422 28.9V32.8667H4.29089C3.53971 32.8658 2.81957 32.567 2.28841 32.0358C1.75725 31.5047 1.45845 30.7845 1.45755 30.0333V28.9H7.12422C7.27451 28.9 7.41864 28.8403 7.52491 28.734C7.63118 28.6278 7.69089 28.4836 7.69089 28.3333C7.69089 28.183 7.63118 28.0389 7.52491 27.9326C7.41864 27.8264 7.27451 27.7667 7.12422 27.7667H1.45755V4.53333H20.7242V17.5667C20.7242 17.717 20.7839 17.8611 20.8902 17.9674C20.9965 18.0736 21.1406 18.1333 21.2909 18.1333C21.4412 18.1333 21.5853 18.0736 21.6916 17.9674C21.7978 17.8611 21.8576 17.717 21.8576 17.5667V3.96667C21.8564 2.91501 21.4381 1.90677 20.6944 1.16314C19.9508 0.419501 18.9425 0.00119984 17.8909 0H4.29089C3.23923 0.00119984 2.23099 0.419501 1.48735 1.16314C0.743719 1.90677 0.325419 2.91501 0.324219 3.96667V30.0333C0.325419 31.085 0.743719 32.0932 1.48735 32.8369C2.23099 33.5805 3.23923 33.9988 4.29089 34H21.8576C22.0078 34 22.152 33.9403 22.2582 33.834C22.3645 33.7278 22.4242 33.5836 22.4242 33.4333V28.9C22.4242 28.7497 22.3645 28.6056 22.2582 28.4993C22.152 28.393 22.0078 28.3333 21.8576 28.3333ZM4.29089 1.13333H17.8909C18.5438 1.13416 19.1765 1.36005 19.6823 1.77294C20.188 2.18583 20.536 2.76047 20.6676 3.4H1.51422C1.64574 2.76047 1.99372 2.18583 2.49951 1.77294C3.0053 1.36005 3.63797 1.13416 4.29089 1.13333ZM10.8076 27.4567C10.6217 27.1775 10.523 26.8492 10.5242 26.5138V21.5333C10.5242 21.383 10.5839 21.2389 10.6902 21.1326C10.7965 21.0264 10.9406 20.9667 11.0909 20.9667H11.6576V24.9333C11.6576 25.0836 11.7173 25.2278 11.8235 25.334C11.9298 25.4403 12.0739 25.5 12.2242 25.5C12.3745 25.5 12.5186 25.4403 12.6249 25.334C12.7312 25.2278 12.7909 25.0836 12.7909 24.9333V13.0968C12.7849 12.9471 12.8339 12.8005 12.9285 12.6844C13.0232 12.5683 13.157 12.4909 13.3049 12.4667C13.3834 12.4603 13.4624 12.4701 13.5369 12.4957C13.6115 12.5212 13.6799 12.5618 13.7381 12.615C13.7962 12.6682 13.8427 12.7328 13.8747 12.8048C13.9068 12.8767 13.9236 12.9545 13.9242 13.0333V22.1C13.9242 22.2503 13.9839 22.3944 14.0902 22.5007C14.1965 22.607 14.3406 22.6667 14.4909 22.6667C14.6412 22.6667 14.7853 22.607 14.8916 22.5007C14.9979 22.3944 15.0576 22.2503 15.0576 22.1V18.7C15.0576 18.5497 15.1173 18.4056 15.2235 18.2993C15.3298 18.193 15.4739 18.1333 15.6242 18.1333C15.6998 18.1331 15.7747 18.1483 15.8442 18.1782C15.9137 18.208 15.9763 18.2517 16.0283 18.3067C16.0803 18.3581 16.1215 18.4193 16.1494 18.4869C16.1773 18.5544 16.1914 18.6269 16.1909 18.7V22.1C16.1909 22.2503 16.2506 22.3944 16.3569 22.5007C16.4631 22.607 16.6073 22.6667 16.7576 22.6667C16.9078 22.6667 17.052 22.607 17.1582 22.5007C17.2645 22.3944 17.3242 22.2503 17.3242 22.1V19.2667C17.3242 19.1164 17.3839 18.9722 17.4902 18.866C17.5965 18.7597 17.7406 18.7 17.8909 18.7C17.9665 18.6997 18.0414 18.715 18.1109 18.7448C18.1804 18.7747 18.243 18.8184 18.2949 18.8734C18.3469 18.9248 18.3881 18.986 18.4161 19.0536C18.444 19.1211 18.4581 19.1936 18.4576 19.2667V22.1C18.4576 22.2503 18.5173 22.3944 18.6235 22.5007C18.7298 22.607 18.8739 22.6667 19.0242 22.6667C19.1745 22.6667 19.3186 22.607 19.4249 22.5007C19.5312 22.3944 19.5909 22.2503 19.5909 22.1V20.4C19.5909 20.2497 19.6506 20.1056 19.7569 19.9993C19.8631 19.893 20.0073 19.8333 20.1576 19.8333C20.2332 19.8331 20.308 19.8483 20.3775 19.8782C20.447 19.908 20.5097 19.9517 20.5616 20.0067C20.6136 20.0581 20.6548 20.1193 20.6827 20.1869C20.7107 20.2544 20.7248 20.3269 20.7242 20.4V26.8322C20.7242 27.0148 20.6949 27.1961 20.6375 27.3694L20.3162 28.3333H11.3941L10.8076 27.4567ZM21.2909 32.8667H9.95755V29.4667H21.2909V32.8667Z" fill="white"/>
</svg>
