<svg width="39" height="34" viewBox="0 0 39 34" fill="none" xmlns="http://www.w3.org/2000/svg">
<path d="M38.4273 12.5796L26.4183 0.570555C25.6573 -0.19128 24.4167 -0.189965 23.6536 0.573186L21.8052 2.42132C21.4346 2.79237 21.2302 3.28385 21.2302 3.80596C21.2298 4.32675 21.4332 4.81692 21.8026 5.18609L22.3435 5.72699C21.691 5.98456 20.7757 6.38906 19.7412 6.96471C18.6713 6.14952 17.8009 5.50342 17.2598 5.10606C17.948 4.34047 17.9296 3.15948 17.1916 2.42151L15.3433 0.57281C14.5794 -0.189025 13.3392 -0.189777 12.5787 0.570744L0.56967 12.5797C-0.191789 13.3408 -0.190474 14.5814 0.572489 15.3445L2.42081 17.1932C2.80295 17.5744 3.30439 17.7657 3.80583 17.7657C4.27157 17.7657 4.73356 17.5936 5.10236 17.2629C5.53221 17.8544 6.23788 18.8142 7.07768 19.9191L5.18915 21.8073C5.06685 21.9296 4.9979 22.0955 4.9979 22.2689C4.9979 22.4423 5.06685 22.608 5.18915 22.7305L7.49739 25.0387L7.49721 25.0389L8.42024 25.9619L8.42043 25.9617L9.80526 27.3466L10.7283 28.2696L12.5749 30.1162L12.5747 30.1164L13.4981 31.0395L16.2674 33.8087C16.395 33.9363 16.562 34 16.729 34C16.8961 34 17.0631 33.9363 17.1906 33.8087L19.2088 31.791C20.436 32.7072 21.3309 33.3479 21.4274 33.4166C21.5415 33.4982 21.6745 33.5384 21.8064 33.5384C21.9747 33.5384 22.1421 33.4734 22.2682 33.3471L31.0374 24.5779C31.0374 24.5779 31.038 24.5775 31.0384 24.5773C31.0388 24.5769 31.0388 24.5767 31.0389 24.5763L33.3464 22.2689C33.5721 22.0432 33.6014 21.6876 33.4161 21.4279C33.3427 21.325 32.6218 20.3187 31.6092 18.9677L32.9305 16.3138L33.8116 17.1949C34.1919 17.5755 34.6916 17.7655 35.1918 17.7655C35.6928 17.7655 36.1944 17.5742 36.5764 17.1925L38.4247 15.3443C38.7954 14.9733 38.9998 14.4818 38.9998 13.9597C39.0002 13.4389 38.7969 12.9487 38.4273 12.5796ZM4.2618 16.2721C4.00629 16.5295 3.60236 16.5276 3.34365 16.2694L1.49552 14.4213C1.24151 14.1669 1.2402 13.7551 1.4927 13.5028L13.5017 1.49378C13.5017 1.49378 13.5017 1.49378 13.5021 1.49378C13.6297 1.36564 13.794 1.30196 13.9584 1.30196C14.1241 1.30196 14.2906 1.36696 14.4202 1.49641L16.2684 3.34454C16.5224 3.59892 16.5237 4.01074 16.2712 4.26306L4.2618 16.2721ZM6.5738 22.2689L7.87934 20.9637C8.40671 21.6436 8.96057 22.3421 9.51555 23.0202L8.42043 24.1155L6.5738 22.2689ZM10.7281 26.4234L9.34327 25.0383L10.3542 24.0272C10.8066 24.5583 11.2461 25.0528 11.6598 25.4917L10.7281 26.4234ZM13.4978 29.1926L11.6515 27.3464L12.5832 26.4147C13.1571 26.956 13.8307 27.5431 14.5485 28.1415L13.4978 29.1926ZM16.7288 32.4239L14.421 30.116L15.5633 28.9732C16.4408 29.68 17.3342 30.3729 18.1558 30.9972L16.7288 32.4239ZM32.0302 21.7385L30.5764 23.1921L24.576 17.1912C24.3211 16.9362 23.9079 16.9362 23.653 17.1912C23.3981 17.4461 23.3981 17.8592 23.653 18.1142L29.6534 24.1151L27.8071 25.9614L21.8066 19.9608C21.5516 19.7059 21.1385 19.7059 20.8835 19.9608C20.6286 20.2158 20.6286 20.6289 20.8835 20.8838L26.8841 26.8844L25.0378 28.7307L19.0371 22.7299C18.7821 22.475 18.369 22.475 18.1141 22.7299C17.8591 22.9849 17.8591 23.398 18.1141 23.6529L24.1148 29.6537L21.7382 32.0303C20.2314 30.9363 15.3183 27.3199 13.0365 25.0383C11.7327 23.7341 9.99351 21.5713 8.5371 19.6751C8.50628 19.6127 8.47228 19.5512 8.42043 19.4994C8.40972 19.4887 8.39563 19.4853 8.38454 19.4755C7.35987 18.1365 6.49057 16.9516 6.04399 16.3369L16.3343 6.046C16.7876 6.37798 17.5624 6.95062 18.5351 7.68766C17.4973 8.35612 16.4096 9.18127 15.3976 10.1935C13.835 11.7553 12.8039 12.8978 12.2452 13.685C11.9705 14.072 11.3274 14.9785 11.9418 15.5918C12.0851 15.7351 12.3523 16.0023 14.8997 16.242C14.92 16.2439 14.9405 16.2446 14.9609 16.2446C15.0566 16.2446 15.1516 16.2236 15.2386 16.1828C16.5964 15.5454 19.1098 14.5789 20.0529 14.6828C21.5505 14.851 23.7676 13.6095 24.9679 12.9324C24.9914 12.9675 25.0066 13.0064 25.0376 13.0374C27.3186 15.3184 30.936 20.2321 32.0302 21.7385ZM30.7295 17.8061C29.2229 15.8366 27.3714 13.5249 25.9607 12.1142C25.8791 12.0327 25.7796 11.9868 25.676 11.9573C25.6633 11.9124 25.6586 11.8662 25.6355 11.8234C25.4647 11.5058 25.0686 11.3867 24.7513 11.5575C24.6439 11.6156 24.5056 11.6934 24.3431 11.785C23.4292 12.3021 21.2891 13.5069 20.2017 13.3857C18.7122 13.2142 15.6578 14.5541 14.8478 14.9246C14.2369 14.8621 13.5615 14.7709 13.1384 14.6875C13.4134 14.2426 14.1831 13.2538 16.3208 11.1164C18.9706 8.46659 22.2719 7.13117 23.358 6.74095L31.9573 15.3402L30.7295 17.8061ZM37.5015 14.4213L35.6534 16.2694C35.399 16.5238 34.9872 16.5238 34.7348 16.2721L24.049 5.58627C24.0366 5.57067 24.0216 5.55959 24.0081 5.54531L22.7258 4.26306C22.6031 4.14075 22.5359 3.97805 22.5359 3.80596C22.5359 3.63255 22.6045 3.46872 22.7287 3.34435L24.5768 1.49622C24.7044 1.36865 24.8716 1.30496 25.0384 1.30496C25.2041 1.30496 25.3696 1.36809 25.4955 1.49359L37.5045 13.5026C37.6272 13.6249 37.6944 13.7876 37.6944 13.9597C37.6943 14.1331 37.6259 14.2969 37.5015 14.4213Z" fill="white"/>
</svg>
