<svg width="34" height="34" viewBox="0 0 34 34" fill="none" xmlns="http://www.w3.org/2000/svg">
<path fill-rule="evenodd" clip-rule="evenodd" d="M21.0304 28.8998H7.704V10.8619C9.78446 10.0342 11.2596 8.00166 11.2596 5.62978C11.2596 5.45117 11.2503 5.2747 11.2339 5.1003H22.2694V8.64505C22.2694 8.91113 22.4851 9.12683 22.7511 9.12683H26.2959V20.7722C26.2959 21.0382 26.5116 21.2539 26.7776 21.2539C27.0437 21.2539 27.2594 21.0382 27.2594 20.7722V8.64505C27.2594 8.51731 27.2087 8.39473 27.1183 8.30436L23.0918 4.27782C23.0015 4.18752 22.8789 4.13673 22.7511 4.13673H11.057C10.401 1.75507 8.21709 0 5.6298 0C2.52556 0 0 2.52558 0 5.62978C0 8.73411 2.52549 11.2596 5.62973 11.2596C6.00985 11.2596 6.38117 11.2212 6.74037 11.1491V29.3816C6.74037 29.6477 6.95607 29.8634 7.22215 29.8634H21.0304C21.2964 29.8634 21.5121 29.6477 21.5121 29.3816C21.5121 29.1155 21.2965 28.8998 21.0304 28.8998ZM23.2329 5.78161L25.6146 8.16327H23.2329V5.78161ZM0.963559 5.62978C0.963559 3.05685 3.05682 0.963567 5.6298 0.963567C8.20278 0.963567 10.296 3.05678 10.296 5.62978C10.296 8.20277 8.20278 10.2961 5.6298 10.2961C3.05682 10.2961 0.963559 8.20277 0.963559 5.62978ZM12.6386 19.5808H9.96705C9.70097 19.5808 9.48527 19.7965 9.48527 20.0626V22.7342C9.48527 23.0003 9.70097 23.216 9.96705 23.216H12.6386C12.9047 23.216 13.1204 23.0003 13.1204 22.7342V20.0626C13.1204 19.7965 12.9046 19.5808 12.6386 19.5808ZM12.1568 22.2524H10.4488V20.5444H12.1568V22.2524ZM13.1204 15.6643C13.1204 15.3982 12.9047 15.1825 12.6386 15.1825H9.96705C9.70097 15.1825 9.48527 15.3982 9.48527 15.6643V18.3358C9.48527 18.6019 9.70097 18.8176 9.96705 18.8176H12.6386C12.9047 18.8176 13.1204 18.6019 13.1204 18.3358V15.6643ZM12.1568 17.8541H10.4488V16.1461H12.1568V17.8541ZM13.1204 11.266C13.1204 10.9999 12.9047 10.7842 12.6386 10.7842H9.96705C9.70097 10.7842 9.48527 10.9999 9.48527 11.266V13.9375C9.48527 14.2036 9.70097 14.4193 9.96705 14.4193H12.6386C12.9047 14.4193 13.1204 14.2036 13.1204 13.9375V11.266ZM12.1568 13.4557H10.4488V11.7477H12.1568V13.4557ZM24.5146 12.6017C24.5146 12.8678 24.2989 13.0835 24.0328 13.0835H14.7899C14.5239 13.0835 14.3082 12.8678 14.3082 12.6017C14.3082 12.3356 14.5239 12.1199 14.7899 12.1199H24.0327C24.2989 12.1199 24.5146 12.3356 24.5146 12.6017ZM24.5146 17.0001C24.5146 17.2662 24.2989 17.4819 24.0328 17.4819H14.7899C14.5239 17.4819 14.3082 17.2662 14.3082 17.0001C14.3082 16.734 14.5239 16.5183 14.7899 16.5183H24.0327C24.2989 16.5183 24.5146 16.7339 24.5146 17.0001ZM24.5146 21.3984C24.5146 21.6645 24.2989 21.8802 24.0328 21.8802H14.7899C14.5239 21.8802 14.3082 21.6645 14.3082 21.3984C14.3082 21.1323 14.5239 20.9166 14.7899 20.9166H24.0327C24.2989 20.9166 24.5146 21.1323 24.5146 21.3984ZM33.1427 26.3751C32.8158 26.3751 32.5458 26.1943 32.4202 25.8914C32.2948 25.5885 32.3579 25.2697 32.5891 25.0385C32.9233 24.7043 32.9233 24.1604 32.5891 23.8262L31.7809 23.018C31.4468 22.6839 30.9029 22.6839 30.5687 23.018C30.3376 23.2491 30.0188 23.3122 29.7157 23.1869C29.4129 23.0614 29.232 22.7913 29.232 22.4644C29.232 21.9918 28.8475 21.6072 28.3749 21.6072H27.232C26.7594 21.6072 26.3749 21.9918 26.3749 22.4644C26.3749 22.7913 26.1941 23.0614 25.8912 23.1869C25.5884 23.3121 25.2694 23.2493 25.0383 23.0181C24.8764 22.8561 24.6612 22.767 24.4321 22.767C24.2032 22.767 23.9879 22.8562 23.8261 23.018L23.0179 23.8262C22.6837 24.1604 22.6837 24.7043 23.0179 25.0385C23.2491 25.2696 23.3121 25.5884 23.1867 25.8914C23.0613 26.1944 22.7912 26.3751 22.4643 26.3751C21.9916 26.3751 21.6071 26.7596 21.6071 27.2323V28.375C21.6071 28.8477 21.9916 29.2322 22.4643 29.2322C22.7912 29.2322 23.0613 29.413 23.1867 29.7159C23.3122 30.0188 23.2491 30.3376 23.0179 30.5688C22.6837 30.903 22.6837 31.4469 23.0179 31.7811L23.8261 32.5892C23.9879 32.7511 24.2032 32.8403 24.4322 32.8403C24.6613 32.8403 24.8765 32.7511 25.0384 32.5892C25.27 32.3577 25.589 32.2942 25.8916 32.4195C26.1942 32.5449 26.3749 32.8153 26.3749 33.1429C26.3749 33.6155 26.7595 34 27.2321 34H28.375C28.8476 34 29.2321 33.6155 29.2321 33.1429C29.2321 32.816 29.4129 32.5459 29.7158 32.4204C30.0186 32.2952 30.3376 32.3581 30.5688 32.5893C30.7306 32.7511 30.9459 32.8403 31.1749 32.8403C31.4039 32.8403 31.6192 32.7511 31.7811 32.5893L32.5892 31.7811C32.9234 31.4469 32.9234 30.903 32.5892 30.5688C32.3581 30.3377 32.295 30.0189 32.4204 29.7159C32.5459 29.413 32.8159 29.2322 33.1428 29.2322C33.6155 29.2322 34 28.8477 34 28.375V27.2323C33.9999 26.7596 33.6153 26.3751 33.1427 26.3751ZM33.0363 28.2717C32.363 28.3104 31.7919 28.715 31.5301 29.3473C31.2682 29.9796 31.3859 30.6695 31.8347 31.1729L31.1726 31.8349C30.6692 31.3861 29.9792 31.2685 29.347 31.5303C28.7148 31.7922 28.3102 32.3632 28.2716 33.0365H27.3354C27.2967 32.3626 26.8922 31.7912 26.2602 31.5294C25.6281 31.2674 24.9381 31.3856 24.4343 31.8349L23.7722 31.1729C24.221 30.6695 24.3387 29.9795 24.0769 29.3473C23.815 28.715 23.2439 28.3104 22.5706 28.2717V27.3356C23.2439 27.2969 23.815 26.8923 24.0769 26.2601C24.3387 25.6278 24.221 24.9379 23.7722 24.4345L24.4343 23.7725C24.9377 24.2213 25.6277 24.3389 26.2599 24.0771C26.8921 23.8152 27.2967 23.2441 27.3354 22.5708H28.2715C28.3102 23.2441 28.7148 23.8152 29.347 24.0771C29.9792 24.339 30.6691 24.2212 31.1726 23.7725L31.8347 24.4345C31.3859 24.9379 31.2682 25.6279 31.5301 26.2601C31.7919 26.8923 32.363 27.2969 33.0363 27.3356V28.2717ZM27.8034 24.576C26.0237 24.576 24.5758 26.0239 24.5758 27.8037C24.5758 29.5835 26.0237 31.0314 27.8034 31.0314C29.5831 31.0314 31.0311 29.5835 31.0311 27.8037C31.0311 26.0239 29.5832 24.576 27.8034 24.576ZM27.8034 30.0678C26.5551 30.0678 25.5394 29.0521 25.5394 27.8036C25.5394 26.5552 26.5551 25.5395 27.8034 25.5395C29.0518 25.5395 30.0675 26.5552 30.0675 27.8036C30.0675 29.0521 29.0518 30.0678 27.8034 30.0678ZM5.6298 1.61872C3.41809 1.61872 1.61878 3.41811 1.61878 5.62978C1.61878 7.84144 3.41816 9.6409 5.6298 9.6409C7.84144 9.6409 9.64082 7.84144 9.64082 5.62978C9.64082 3.41811 7.84144 1.61872 5.6298 1.61872ZM5.6298 8.6774C3.94942 8.6774 2.58234 7.3103 2.58234 5.62984C2.58234 3.94945 3.94942 2.58236 5.6298 2.58236C7.31018 2.58236 8.67726 3.94945 8.67726 5.62984C8.67719 7.31024 7.31018 8.6774 5.6298 8.6774ZM6.31799 5.62984C6.31799 6.00894 6.00882 6.31811 5.62973 6.31811C5.566 6.31811 5.50454 6.30868 5.4459 6.29237L4.89171 6.61234C4.81587 6.65611 4.733 6.6769 4.65124 6.6769C4.48475 6.6769 4.3228 6.59052 4.2336 6.43594C4.10056 6.20551 4.17951 5.91086 4.40993 5.77782L4.96412 5.45785C4.99591 5.33527 5.06013 5.2257 5.14788 5.13953V4.05744C5.14788 3.79136 5.36358 3.57566 5.62966 3.57566C5.89574 3.57566 6.11144 3.79136 6.11144 4.05744V5.13946C6.23877 5.26445 6.31799 5.43809 6.31799 5.62984Z" fill="white"/>
</svg>
