<svg width="31" height="34" viewBox="0 0 31 34" fill="none" xmlns="http://www.w3.org/2000/svg">
<path d="M26.9433 0H4.53772C2.51778 0 0.874481 1.6433 0.874481 3.66324V30.3365C0.874481 32.3567 2.51778 34 4.53772 34H26.9433C28.9633 34 30.6068 32.3567 30.6068 30.3365V3.66324C30.6068 1.6433 28.9633 0 26.9433 0ZM28.6147 30.3365C28.6147 31.2581 27.865 32.0078 26.9433 32.0078H4.53772C3.61633 32.0078 2.86667 31.2581 2.86667 30.3365V3.66324C2.86667 2.74185 3.61633 1.99219 4.53772 1.99219H26.9433C27.865 1.99219 28.6147 2.74185 28.6147 3.66324V30.3365Z" fill="white"/>
<path d="M25.3439 7.04155C23.7751 7.04155 22.4991 5.7653 22.4991 4.19672C22.4991 3.64653 22.0529 3.20062 21.503 3.20062H9.97993C9.43001 3.20062 8.98384 3.64653 8.98384 4.19672C8.98384 5.7653 7.70786 7.04155 6.13901 7.04155C5.58908 7.04155 5.14291 7.48746 5.14291 8.03764V20.2006C5.14291 22.7375 6.89697 25.2934 10.3561 27.7974C12.8118 29.5748 15.2325 30.6666 15.3345 30.712C15.4639 30.7701 15.6027 30.7992 15.7415 30.7992C15.8802 30.7992 16.019 30.7701 16.1485 30.712C16.2504 30.6666 18.6711 29.5748 21.1268 27.7974C24.5859 25.2934 26.34 22.7373 26.34 20.2006V8.03764C26.34 7.48746 25.8938 7.04155 25.3439 7.04155ZM24.3478 20.2006C24.3478 22.5124 21.9746 24.7201 19.9839 26.1653C18.2607 27.4161 16.5116 28.3235 15.7412 28.7006C14.9757 28.3263 13.2445 27.4288 11.5244 26.1837C9.52209 24.7341 7.1351 22.5197 7.1351 20.2006V8.9305C9.00433 8.53777 10.4801 7.06204 10.873 5.19281H20.6099C21.0026 7.06204 22.4783 8.53777 24.3475 8.9305V20.2006H24.3478Z" fill="white"/>
<path d="M21.0052 13.1571L17.9848 12.7185L16.6341 9.98132C16.4665 9.64151 16.1202 9.42621 15.741 9.42621C15.3617 9.42621 15.0154 9.64151 14.8476 9.98132L13.4969 12.7182L10.4765 13.1571C10.1014 13.2116 9.78957 13.4744 9.67232 13.8352C9.55507 14.1958 9.65287 14.5916 9.92446 14.8562L12.1102 16.9867L11.5942 19.9949C11.5299 20.3687 11.6837 20.7464 11.9903 20.9692C12.2972 21.192 12.7037 21.2214 13.0393 21.045L15.741 19.6248L18.4426 21.045C18.5884 21.1217 18.7477 21.1594 18.9062 21.1594H18.9098C19.4589 21.1581 19.9036 20.7127 19.9036 20.1633C19.9036 20.0867 19.895 20.0123 19.8787 19.9407L19.372 16.9867L21.5575 14.8562C21.8291 14.5916 21.9269 14.1958 21.8096 13.8352C21.6924 13.4747 21.3806 13.2116 21.0052 13.1571ZM17.6063 15.9257C17.3716 16.1545 17.2644 16.4842 17.3199 16.8074L17.5832 18.3425L16.2045 17.6178C15.9142 17.4653 15.5677 17.4653 15.2774 17.6178L13.8987 18.3425L14.162 16.8074C14.2175 16.4842 14.1104 16.1545 13.8756 15.9257L12.7602 14.8386L14.3016 14.6147C14.6261 14.5675 14.9065 14.3639 15.0517 14.0697L15.741 12.6731L16.4302 14.0697C16.5755 14.3636 16.8559 14.5675 17.1804 14.6145L18.7217 14.8386L17.6063 15.9257Z" fill="white"/>
</svg>
