<svg width="34" height="34" viewBox="0 0 34 34" fill="none" xmlns="http://www.w3.org/2000/svg">
<path d="M7.58225 8.67007C7.39897 8.70372 7.23327 8.80055 7.11397 8.94371C6.99468 9.08687 6.92933 9.26731 6.92928 9.45366V11.4724C6.92933 11.6588 6.99468 11.8392 7.11397 11.9824C7.23327 12.1255 7.39897 12.2224 7.58225 12.256L8.38038 12.4026C8.3957 12.4408 8.41144 12.4788 8.4276 12.5167L7.96688 13.1846C7.86102 13.3381 7.8123 13.5237 7.82919 13.7094C7.84608 13.895 7.92751 14.0688 8.05931 14.2006L9.48704 15.6284C9.61883 15.7602 9.79267 15.8416 9.9783 15.8585C10.1639 15.8754 10.3496 15.8267 10.503 15.7209L11.1711 15.2601C11.2089 15.2763 11.2468 15.2921 11.285 15.3074L11.4316 16.1055C11.4653 16.2888 11.5621 16.4545 11.7052 16.5738C11.8484 16.6931 12.0288 16.7584 12.2152 16.7585H14.2339C14.4203 16.7584 14.6007 16.6931 14.7439 16.5738C14.887 16.4545 14.9839 16.2888 15.0175 16.1055L15.1641 15.3074C15.2023 15.2921 15.2403 15.2764 15.2781 15.2602L15.9461 15.7209C16.0996 15.8267 16.2852 15.8755 16.4709 15.8586C16.6565 15.8417 16.8303 15.7603 16.9621 15.6284L18.3899 14.2007C18.5217 14.0689 18.6031 13.8951 18.62 13.7094C18.6369 13.5238 18.5882 13.3381 18.4823 13.1847L18.0215 12.5167C18.0377 12.4789 18.0535 12.4409 18.0688 12.4026L18.8669 12.2561C19.0502 12.2224 19.2159 12.1256 19.3352 11.9824C19.4545 11.8393 19.5199 11.6588 19.5199 11.4725V11.26H20.9543V18.4737C20.9543 18.685 21.0382 18.8877 21.1877 19.0372C21.3371 19.1866 21.5398 19.2706 21.7511 19.2706H24.3968C24.5854 19.8196 24.9626 20.284 25.4613 20.581C25.9601 20.8781 26.548 20.9887 27.1206 20.8931C27.6932 20.7975 28.2133 20.5019 28.5885 20.0589C28.9637 19.6159 29.1696 19.0542 29.1696 18.4737C29.1696 17.8932 28.9637 17.3315 28.5885 16.8885C28.2133 16.4455 27.6932 16.1499 27.1206 16.0543C26.548 15.9587 25.9601 16.0692 25.4613 16.3663C24.9626 16.6634 24.5854 17.1278 24.3968 17.6768H22.5482V11.2602H24.3968C24.5854 11.8092 24.9626 12.2736 25.4613 12.5707C25.9601 12.8678 26.548 12.9783 27.1206 12.8827C27.6932 12.7871 28.2133 12.4915 28.5885 12.0485C28.9637 11.6055 29.1696 11.0438 29.1696 10.4633C29.1696 9.88278 28.9637 9.32108 28.5885 8.87807C28.2133 8.43507 27.6932 8.13948 27.1206 8.04388C26.548 7.94828 25.9601 8.05886 25.4613 8.35595C24.9626 8.65304 24.5854 9.1174 24.3968 9.66643H22.5482V3.24979H24.3968C24.5854 3.79883 24.9626 4.26318 25.4613 4.56027C25.9601 4.85737 26.548 4.96794 27.1206 4.87234C27.6932 4.77674 28.2133 4.48116 28.5885 4.03815C28.9637 3.59515 29.1696 3.03344 29.1696 2.45292C29.1696 1.8724 28.9637 1.31069 28.5885 0.867686C28.2133 0.424683 27.6932 0.129098 27.1206 0.0334959C26.548 -0.062106 25.9601 0.0484718 25.4613 0.345565C24.9626 0.642659 24.5854 1.10701 24.3968 1.65604H21.7513C21.54 1.65604 21.3373 1.74 21.1879 1.88944C21.0384 2.03889 20.9545 2.24157 20.9545 2.45292V9.66643H19.5201V9.45393C19.5201 9.26758 19.4547 9.08713 19.3354 8.94397C19.2161 8.80081 19.0504 8.70399 18.8671 8.67034L18.069 8.52351C18.0537 8.48531 18.0379 8.4473 18.0218 8.40949L18.4825 7.74151C18.5884 7.58809 18.6371 7.40241 18.6202 7.21677C18.6033 7.03114 18.5219 6.8573 18.3901 6.7255L16.9623 5.29776C16.8305 5.16596 16.6567 5.08453 16.4711 5.06764C16.2854 5.05075 16.0998 5.09947 15.9463 5.20533L15.2783 5.66612C15.2405 5.64991 15.2025 5.63415 15.1643 5.61884L15.018 4.8211C14.9843 4.63781 14.8875 4.47211 14.7443 4.35282C14.6012 4.23352 14.4207 4.16817 14.2344 4.16813H12.2157C12.0293 4.16817 11.8489 4.23352 11.7057 4.35282C11.5625 4.47211 11.4657 4.63781 11.4321 4.8211L11.2855 5.61924C11.2473 5.63455 11.2094 5.65031 11.1716 5.66652L10.5035 5.20572C10.3501 5.09988 10.1644 5.05117 9.97876 5.06807C9.79313 5.08497 9.6193 5.16641 9.4875 5.29823L8.05978 6.72596C7.92797 6.85777 7.84654 7.0316 7.82966 7.21724C7.81277 7.40287 7.86149 7.58855 7.96734 7.74198L8.42806 8.40996C8.41195 8.44772 8.39621 8.48573 8.38085 8.52398L7.58225 8.67007ZM26.716 17.6145C26.886 17.6145 27.0521 17.6649 27.1934 17.7593C27.3347 17.8537 27.4448 17.9879 27.5098 18.1449C27.5749 18.3018 27.5919 18.4746 27.5588 18.6413C27.5256 18.8079 27.4438 18.961 27.3236 19.0812C27.2035 19.2014 27.0504 19.2832 26.8837 19.3163C26.7171 19.3495 26.5443 19.3325 26.3873 19.2675C26.2303 19.2024 26.0961 19.0923 26.0017 18.951C25.9073 18.8097 25.8569 18.6436 25.8569 18.4737C25.8572 18.2459 25.9478 18.0276 26.1088 17.8665C26.2699 17.7054 26.4883 17.6148 26.716 17.6145ZM26.716 9.60414C26.886 9.60413 27.0521 9.65451 27.1934 9.7489C27.3347 9.8433 27.4448 9.97748 27.5098 10.1345C27.5749 10.2915 27.5919 10.4642 27.5588 10.6309C27.5256 10.7975 27.4438 10.9506 27.3236 11.0708C27.2035 11.191 27.0504 11.2728 26.8837 11.306C26.7171 11.3391 26.5443 11.3221 26.3873 11.2571C26.2303 11.192 26.0961 11.0819 26.0017 10.9406C25.9073 10.7993 25.8569 10.6332 25.8569 10.4633C25.8572 10.2355 25.9478 10.0172 26.1088 9.8561C26.2699 9.69503 26.4883 9.60442 26.716 9.60414ZM26.716 1.59376C26.886 1.59374 27.0521 1.64412 27.1934 1.73852C27.3347 1.83292 27.4448 1.96709 27.5098 2.12409C27.5749 2.28108 27.5919 2.45383 27.5588 2.62049C27.5256 2.78716 27.4438 2.94025 27.3236 3.06042C27.2035 3.18058 27.0504 3.26241 26.8837 3.29557C26.7171 3.32873 26.5443 3.31172 26.3873 3.24669C26.2303 3.18166 26.0961 3.07154 26.0017 2.93025C25.9073 2.78896 25.8569 2.62285 25.8569 2.45292C25.8572 2.22515 25.9478 2.00678 26.1088 1.84571C26.2699 1.68465 26.4883 1.59404 26.716 1.59376ZM8.52302 10.1177L9.12459 10.0073C9.26994 9.98061 9.40501 9.91405 9.5147 9.81502C9.62439 9.716 9.70439 9.58843 9.74576 9.44656C9.81912 9.19509 9.9197 8.95238 10.0457 8.72273C10.1169 8.59316 10.1506 8.44634 10.1431 8.29871C10.1356 8.15107 10.0871 8.00843 10.0032 7.88674L9.65571 7.38305L10.1445 6.8943L10.6482 7.24174C10.7699 7.32565 10.9125 7.37407 11.0601 7.38159C11.2077 7.38911 11.3545 7.35542 11.4841 7.28431C11.7137 7.1583 11.9564 7.05768 12.2079 6.98422C12.3497 6.94284 12.4773 6.86284 12.5763 6.75316C12.6752 6.64348 12.7418 6.50844 12.7685 6.36312L12.8789 5.76154H13.5701L13.6806 6.36312C13.7073 6.50845 13.7739 6.64349 13.8729 6.75317C13.9719 6.86285 14.0994 6.94285 14.2413 6.98422C14.4928 7.05763 14.7355 7.15826 14.9651 7.28431C15.0947 7.35544 15.2415 7.38913 15.3891 7.38161C15.5367 7.37409 15.6794 7.32566 15.801 7.24174L16.3048 6.8943L16.7935 7.38298L16.446 7.88674C16.3621 8.00843 16.3137 8.15106 16.3061 8.2987C16.2986 8.44633 16.3323 8.59315 16.4035 8.72273C16.5295 8.95238 16.6301 9.19509 16.7035 9.44656C16.7449 9.58853 16.825 9.71619 16.9348 9.81524C17.0446 9.91429 17.1798 9.98084 17.3252 10.0074L17.9268 10.1179V10.809L17.3252 10.9195C17.1799 10.9462 17.0449 11.0127 16.9352 11.1117C16.8255 11.2107 16.7455 11.3382 16.7042 11.4801C16.6307 11.7315 16.5301 11.9742 16.4041 12.2039C16.3329 12.3335 16.2992 12.4803 16.3067 12.6279C16.3142 12.7756 16.3627 12.9182 16.4466 13.0399L16.7941 13.5436L16.3053 14.0324L15.8016 13.6849C15.68 13.601 15.5373 13.5526 15.3897 13.545C15.2421 13.5375 15.0953 13.5712 14.9657 13.6423C14.7361 13.7684 14.4934 13.869 14.2419 13.9424C14.1001 13.9838 13.9725 14.0638 13.8735 14.1734C13.7745 14.2831 13.708 14.4182 13.6813 14.5635L13.5708 15.1651H12.8791L12.7687 14.5635C12.742 14.4182 12.6755 14.2832 12.5765 14.1735C12.4775 14.0639 12.35 13.9839 12.2082 13.9425C11.9568 13.869 11.7141 13.7683 11.4844 13.6423C11.3548 13.5712 11.208 13.5375 11.0604 13.5451C10.9128 13.5526 10.7702 13.601 10.6485 13.6849L10.1449 14.0324L9.65604 13.5436L10.0035 13.0399C10.0875 12.9182 10.1359 12.7756 10.1434 12.628C10.151 12.4803 10.1173 12.3335 10.0461 12.2039C9.92005 11.9743 9.81945 11.7316 9.74609 11.4801C9.70471 11.3383 9.62471 11.2107 9.51502 11.1117C9.40533 11.0127 9.27027 10.9461 9.12493 10.9194L8.52336 10.8089L8.52302 10.1177ZM13.2246 13.3987C13.8051 13.3987 14.3726 13.2265 14.8552 12.904C15.3379 12.5815 15.7141 12.1231 15.9363 11.5867C16.1584 11.0504 16.2165 10.4602 16.1033 9.89088C15.99 9.32152 15.7105 8.79852 15.3 8.38803C14.8895 7.97755 14.3665 7.698 13.7972 7.58475C13.2278 7.47149 12.6377 7.52962 12.1013 7.75177C11.565 7.97393 11.1066 8.35013 10.7841 8.83282C10.4616 9.3155 10.2894 9.88298 10.2894 10.4635C10.2904 11.2417 10.5999 11.9877 11.1502 12.538C11.7005 13.0882 12.4466 13.3978 13.2248 13.3987H13.2246ZM13.2246 9.1217C13.4899 9.1217 13.7492 9.20037 13.9698 9.34777C14.1904 9.49516 14.3623 9.70466 14.4638 9.94977C14.5654 10.1949 14.5919 10.4646 14.5402 10.7248C14.4884 10.985 14.3607 11.224 14.1731 11.4116C13.9855 11.5992 13.7465 11.727 13.4862 11.7787C13.226 11.8305 12.9563 11.8039 12.7112 11.7024C12.4661 11.6009 12.2566 11.4289 12.1092 11.2084C11.9618 10.9878 11.8832 10.7284 11.8832 10.4631C11.8836 10.1074 12.0251 9.76649 12.2766 9.51502C12.5281 9.26355 12.8691 9.1221 13.2248 9.1217H13.2246ZM6.6452 20.3786C6.60948 20.1703 6.49256 19.9847 6.32013 19.8626C6.14769 19.7405 5.93384 19.6919 5.72555 19.7273L0.662634 20.5926C0.454311 20.6282 0.268664 20.7451 0.146532 20.9176C0.0244007 21.09 -0.0242108 21.304 0.0113916 21.5123L2.03199 33.3373C2.06364 33.5226 2.15975 33.6907 2.30334 33.812C2.44694 33.9332 2.62876 33.9998 2.81671 34C2.86202 34 2.90724 33.9961 2.95191 33.9885L8.01515 33.1234C8.22348 33.0878 8.40912 32.9709 8.53125 32.7985C8.65339 32.626 8.702 32.412 8.6664 32.2037L8.50702 31.2716L10.1635 30.6695L23.0113 31.8065C23.112 31.8153 23.2116 31.8198 23.3101 31.8198C23.7082 31.8216 24.1028 31.7449 24.4712 31.594C24.8396 31.4431 25.1746 31.221 25.457 30.9404L33.5457 23.1128C33.5916 23.0684 33.632 23.0186 33.6661 22.9645C33.9329 22.5408 34.045 22.038 33.9836 21.541C33.9221 21.0441 33.6909 20.5837 33.3289 20.2377C32.967 19.8918 32.4966 19.6815 31.9974 19.6426C31.4982 19.6037 31.0009 19.7384 30.5897 20.0241C30.5814 20.0298 30.5732 20.0357 30.5652 20.0418L23.6232 25.2629C23.3377 25.4866 22.9787 25.5951 22.6171 25.5671L15.8184 25.1739C15.8073 25.1728 15.7965 25.1694 15.7868 25.1639C15.7771 25.1584 15.7686 25.151 15.7619 25.1421C15.7504 25.129 15.7416 25.1137 15.7361 25.0972C15.7305 25.0807 15.7283 25.0632 15.7295 25.0458C15.7357 24.9718 15.8436 24.9389 15.9192 24.9389H15.9208L21.8508 24.9764C23.9639 25.1413 24.3019 23.9246 24.3553 23.5461C24.5231 22.3542 23.3433 21.0042 21.8801 20.7136C21.8654 20.7107 21.8506 20.7082 21.8357 20.7061L12.9671 19.4602C12.4685 19.3854 11.959 19.4372 11.4857 19.6108L6.79933 21.2801L6.6452 20.3786ZM3.46888 32.2834L1.71656 22.0293L5.20858 21.4326L6.96089 31.6867L3.46888 32.2834ZM12.0205 21.1121C12.2517 21.0256 12.5014 21.0002 12.7454 21.0384L21.5896 22.2809C22.3367 22.4391 22.7789 23.0911 22.7787 23.3036C22.7082 23.3478 22.462 23.4285 21.9523 23.3857C21.9318 23.384 21.9112 23.383 21.8906 23.3829L15.9308 23.3453H15.9185C14.9795 23.3453 14.2165 24.0171 14.1413 24.9124C14.1227 25.1419 14.15 25.3727 14.2215 25.5915C14.2931 25.8103 14.4075 26.0126 14.5581 26.1867C14.7038 26.3568 14.8824 26.4957 15.0832 26.5951C15.2839 26.6945 15.5027 26.7524 15.7263 26.7652L22.5248 27.1582C23.263 27.2078 23.9939 26.9869 24.5809 26.5366L31.5083 21.3265C31.613 21.2569 31.7375 21.2234 31.863 21.231C31.9885 21.2386 32.108 21.2869 32.2036 21.3686C32.2991 21.4503 32.3654 21.561 32.3923 21.6838C32.4193 21.8066 32.4055 21.9348 32.353 22.049L24.3483 29.7952C24.1941 29.9519 24.0062 30.0716 23.7988 30.145C23.5915 30.2184 23.3702 30.2437 23.1516 30.219L10.1275 29.0663C10.0115 29.0562 9.89459 29.0714 9.78507 29.1112L8.23389 29.675L7.07179 22.875L12.0205 21.1121Z" fill="white"/>
</svg>
