<svg width="34" height="34" viewBox="0 0 34 34" fill="none" xmlns="http://www.w3.org/2000/svg">
<path d="M32.2565 17.1965C32.585 16.795 32.7913 16.2886 32.7913 15.7295C32.7913 14.444 31.7452 13.3987 30.4605 13.3987C29.1753 13.3987 28.1304 14.4436 28.1304 15.7295C28.1304 16.2666 28.3206 16.7546 28.6263 17.1486C27.6312 17.7527 26.9636 18.8421 26.9636 20.0879C26.9636 20.5176 27.312 20.8667 27.7424 20.8667C28.1727 20.8667 28.5212 20.5176 28.5212 20.0879C28.5212 19.0505 29.3651 18.2077 30.4013 18.2077C31.4384 18.2077 32.2815 19.0505 32.2815 20.0879C32.2815 20.5176 32.6303 20.8667 33.0607 20.8667C33.4911 20.8667 33.8395 20.5176 33.8395 20.0879C33.8402 18.875 33.207 17.8092 32.2565 17.1965ZM30.4605 16.5027C30.035 16.5027 29.6884 16.1558 29.6884 15.7299C29.6884 15.304 30.0353 14.9571 30.4605 14.9571C30.8864 14.9571 31.2329 15.304 31.2329 15.7299C31.2329 16.1558 30.8864 16.5027 30.4605 16.5027Z" fill="white"/>
<path d="M13.9044 6.69157C13.9044 7.12194 14.2528 7.47074 14.6836 7.47074C15.1132 7.47074 15.4624 7.12232 15.4624 6.69157C15.4624 5.65454 16.3059 4.81138 17.3426 4.81138C18.38 4.81138 19.2227 5.65492 19.2227 6.69157C19.2227 7.12194 19.5719 7.47074 20.0015 7.47074C20.4319 7.47074 20.7803 7.12232 20.7803 6.69157C20.7803 5.47902 20.1479 4.41281 19.1962 3.80092C19.5255 3.39936 19.731 2.89189 19.731 2.33352C19.731 1.048 18.6857 0.00274658 17.4009 0.00274658C16.1162 0.00274658 15.0709 1.04838 15.0709 2.3339C15.0709 2.87019 15.261 3.35932 15.5668 3.75414C14.5724 4.35705 13.9044 5.44646 13.9044 6.69157ZM17.4013 1.56109C17.8272 1.56109 18.1734 1.90726 18.1734 2.3339C18.1734 2.75978 17.8272 3.10671 17.4013 3.10671C16.9754 3.10671 16.6289 2.75978 16.6289 2.3339C16.6285 1.90689 16.9754 1.56109 17.4013 1.56109Z" fill="white"/>
<path d="M13.9044 33.2212C13.9044 33.6516 14.2528 34 14.6836 34C15.1132 34 15.4624 33.6516 15.4624 33.2212C15.4624 32.1842 16.3059 31.341 17.3426 31.341C18.38 31.341 19.2227 32.1845 19.2227 33.2212C19.2227 33.6516 19.5719 34 20.0015 34C20.4319 34 20.7803 33.6516 20.7803 33.2212C20.7803 32.0079 20.1479 30.9421 19.1954 30.3298C19.5255 29.9282 19.731 29.4215 19.731 28.8632C19.731 27.5776 18.6857 26.5324 17.4009 26.5324C16.1162 26.5324 15.0705 27.5776 15.0705 28.8632C15.0705 29.3994 15.2607 29.8886 15.5664 30.2827C14.5724 30.8859 13.9044 31.9761 13.9044 33.2212ZM17.4013 28.0903C17.8272 28.0903 18.1734 28.4365 18.1734 28.8632C18.1734 29.2887 17.8272 29.6348 17.4013 29.6348C16.9754 29.6348 16.6289 29.2887 16.6289 28.8632C16.6285 28.4365 16.9754 28.0903 17.4013 28.0903Z" fill="white"/>
<path d="M1.09105 20.8671C1.52143 20.8671 1.86985 20.5179 1.86985 20.0883C1.86985 19.0509 2.71414 18.2081 3.75079 18.2081C4.78781 18.2081 5.63172 19.0509 5.63172 20.0883C5.63172 20.5179 5.98014 20.8671 6.4109 20.8671C6.84053 20.8671 7.18969 20.5179 7.18969 20.0883C7.18969 18.875 6.55685 17.8092 5.60478 17.1965C5.93411 16.795 6.14032 16.2886 6.14032 15.7295C6.14032 14.444 5.09431 13.3987 3.80954 13.3987C2.52477 13.3987 1.47877 14.4436 1.47877 15.7295C1.47877 16.2666 1.66888 16.7546 1.97501 17.1486C0.979903 17.7527 0.312256 18.8421 0.312256 20.0879C0.311882 20.5179 0.660301 20.8671 1.09105 20.8671ZM3.80954 14.9571C4.23543 14.9571 4.58235 15.304 4.58235 15.7299C4.58235 16.1558 4.23543 16.5027 3.80954 16.5027C3.38366 16.5027 3.03673 16.1558 3.03673 15.7299C3.03673 15.304 3.38366 14.9571 3.80954 14.9571Z" fill="white"/>
<path d="M12.4384 30.6974C12.758 30.6974 13.0566 30.4998 13.1715 30.1824C13.3178 29.7779 13.1079 29.3314 12.703 29.1862C9.38007 27.9883 6.68291 25.4348 5.30308 22.1797C5.13579 21.7837 4.67922 21.5973 4.28177 21.7665C3.8862 21.9338 3.70132 22.3911 3.86936 22.7878C5.41722 26.4411 8.44484 29.3075 12.1745 30.6514C12.2617 30.6832 12.3508 30.6974 12.4384 30.6974Z" fill="white"/>
<path d="M29.9663 21.0901C29.5624 20.9442 29.1152 21.1519 28.9689 21.5564C27.7915 24.803 25.3002 27.4653 22.1352 28.8612C21.7412 29.0345 21.5634 29.4948 21.7367 29.8882C21.8647 30.1793 22.1506 30.3526 22.4492 30.3526C22.5544 30.3526 22.6607 30.3313 22.7629 30.2864C26.3159 28.7201 29.1122 25.7322 30.4326 22.0882C30.5796 21.6837 30.3708 21.2368 29.9663 21.0901Z" fill="white"/>
<path d="M28.9104 11.6283C29.0343 11.6283 29.1615 11.5987 29.2775 11.5355C29.6574 11.3323 29.7996 10.86 29.5964 10.4812C28.0051 7.51686 25.4112 5.20143 22.2934 3.96007C21.8956 3.80101 21.4405 3.99487 21.2818 4.39606C21.1228 4.79537 21.3181 5.24783 21.7175 5.40763C24.4947 6.51389 26.8056 8.57671 28.2236 11.2177C28.3644 11.4793 28.6323 11.6283 28.9104 11.6283Z" fill="white"/>
<path d="M4.11513 11.1096C3.931 11.4973 4.09529 11.9621 4.48488 12.147C4.59229 12.1979 4.70606 12.2222 4.81795 12.2222C5.10949 12.2222 5.3883 12.0579 5.52228 11.7773C6.9676 8.73169 9.6176 6.34403 12.7915 5.22729C13.1968 5.08433 13.4098 4.6401 13.2672 4.23405C13.125 3.82875 12.6808 3.61393 12.2747 3.75802C8.71081 5.01135 5.73747 7.6913 4.11513 11.1096Z" fill="white"/>
<path d="M25.2914 17.0001C25.2914 12.4714 21.6059 8.78662 17.0764 8.78662C12.5459 8.78662 8.86108 12.4714 8.86108 17.0001C8.86108 21.5307 12.5459 25.2169 17.0764 25.2169C21.6059 25.2166 25.2914 21.5303 25.2914 17.0001ZM17.0764 23.659C13.4055 23.659 10.4187 20.6718 10.4187 17.0001C10.4187 13.3307 13.4051 10.3446 17.0764 10.3446C20.7462 10.3446 23.7338 13.3307 23.7338 17.0001C23.7338 20.6718 20.7462 23.659 17.0764 23.659Z" fill="white"/>
<path d="M19.5537 12.5256L16.833 16.027L14.5632 15.0289C14.1699 14.8564 13.7096 15.0349 13.5371 15.4289C13.3638 15.8223 13.5434 16.2826 13.9364 16.4551L16.7623 17.6972C16.8629 17.7421 16.9692 17.7635 17.0755 17.7635C17.3098 17.7635 17.5388 17.6572 17.69 17.4622L20.7842 13.4818C21.0477 13.1423 20.9867 12.6524 20.6477 12.3886C20.3063 12.1251 19.8176 12.1873 19.5537 12.5256Z" fill="white"/>
</svg>
