<svg width="36" height="34" viewBox="0 0 36 34" fill="none" xmlns="http://www.w3.org/2000/svg">
<path d="M34.2906 20.6251H29.4442C29.0854 20.6251 28.7548 20.73 28.4805 20.9188C27.4254 19.6813 26.3422 18.9402 25.2097 18.6745C23.6552 18.0382 23.7396 17.3671 23.7678 17.1433C23.7748 17.0734 23.7748 17.0035 23.7678 16.9336C23.5638 15.3325 23.4512 14.1929 23.4442 13.5357C23.4372 12.8365 22.9307 12.2632 22.1851 12.1024C21.6716 11.9905 21.1441 12.1164 20.7361 12.445C20.715 12.459 20.7009 12.48 20.6798 12.4939C18.5626 14.5495 17.9014 17.1643 18.7314 20.1287H14.4126C13.1043 20.1287 12.0351 21.1914 12.0351 22.4919C12.0351 23.233 12.3798 23.8972 12.9214 24.3307C12.7104 24.6872 12.5838 25.0997 12.5838 25.5402C12.5838 26.2813 12.9284 26.9455 13.47 27.379C13.259 27.7356 13.1324 28.1481 13.1324 28.5885C13.1324 29.3296 13.4771 29.9938 14.0187 30.4273C13.8077 30.7839 13.6811 31.1964 13.6811 31.6369C13.6811 32.9373 14.7502 34 16.0585 34H23.9506C25.0057 34 25.7724 33.6015 26.518 33.2239C26.933 33.0072 27.3621 32.7905 27.8686 32.6227C28.1429 33.203 28.7408 33.6085 29.4301 33.6085H34.2765C35.2261 33.6085 35.9998 32.8394 35.9998 31.8955V22.3381C36.0139 21.3942 35.2401 20.6251 34.2906 20.6251ZM25.7584 31.7207C25.0901 32.0633 24.6118 32.308 23.9647 32.308H16.0726C15.6928 32.308 15.3833 32.0004 15.3833 31.6229C15.3833 31.2453 15.6928 30.9377 16.0726 30.9377H18.6541C19.1183 30.9377 19.4981 30.5601 19.4981 30.0987C19.4981 29.6373 19.1183 29.2597 18.6541 29.2597H15.524C15.1441 29.2597 14.8346 28.9521 14.8346 28.5745C14.8346 28.197 15.1441 27.8894 15.524 27.8894H18.1054C18.5697 27.8894 18.9495 27.5118 18.9495 27.0504C18.9495 26.5889 18.5697 26.2114 18.1054 26.2114H14.9753C14.5955 26.2114 14.286 25.9038 14.286 25.5262C14.286 25.1487 14.5955 24.841 14.9753 24.841H17.5568C18.021 24.841 18.4008 24.4635 18.4008 24.0021C18.4008 23.5406 18.021 23.1631 17.5568 23.1631H14.4267C14.0468 23.1631 13.7373 22.8554 13.7373 22.4779C13.7373 22.1003 14.0468 21.7927 14.4267 21.7927H19.9202C20.2015 21.7927 20.4618 21.6529 20.6165 21.4222C20.7713 21.1914 20.8065 20.8978 20.7009 20.6391C19.6107 17.9054 19.9694 15.5982 21.7631 13.7804C21.7912 14.5005 21.8967 15.5702 22.0796 17.0315C21.9952 18.0173 22.3961 19.3387 24.64 20.2336C24.6822 20.2546 24.7314 20.2686 24.7806 20.2756C25.7302 20.4783 26.722 21.2823 27.7279 22.6527V30.9097C26.9119 31.1265 26.3 31.4411 25.7584 31.7207ZM34.3257 31.8816C34.3257 31.8955 34.3117 31.9165 34.2906 31.9165H29.4442C29.4301 31.9165 29.409 31.9025 29.409 31.8816V22.5129C29.416 22.4499 29.416 22.394 29.409 22.3311C29.416 22.3171 29.4301 22.3031 29.4442 22.3031H34.2906C34.3046 22.3031 34.3257 22.3171 34.3257 22.3381V31.8816ZM18.3938 9.14497C18.3938 4.10405 14.2649 0 9.19339 0C4.12893 0 0 4.10405 0 9.14497C0 14.1859 4.12894 18.2899 9.20042 18.2899C14.2719 18.283 18.3938 14.1859 18.3938 9.14497ZM9.20042 16.605C5.05742 16.605 1.68815 13.263 1.68815 9.14497C1.68815 5.02694 5.05742 1.67798 9.20042 1.67798C13.3434 1.67798 16.7127 5.02694 16.7127 9.14497C16.7127 13.263 13.3364 16.605 9.20042 16.605ZM11.9226 6.53712V7.57886C11.9226 8.0403 11.5427 8.41785 11.0785 8.41785C10.6142 8.41785 10.2344 8.0403 10.2344 7.57886V6.53712C10.2344 6.1386 9.91085 5.80999 9.50288 5.80999H8.88389C8.48296 5.80999 8.15236 6.13161 8.15236 6.53712V7.57886C8.15236 7.97738 8.47592 8.30598 8.88389 8.30598H9.50288C10.8323 8.30598 11.9226 9.38269 11.9226 10.7111V11.7528C11.9226 12.8925 11.1207 13.8503 10.0445 14.095V14.6613C10.0445 15.1228 9.66466 15.5003 9.20042 15.5003C8.73618 15.5003 8.35635 15.1228 8.35635 14.6613V14.095C7.28015 13.8503 6.47124 12.8925 6.47124 11.7458V10.7041C6.47124 10.2426 6.85108 9.8651 7.31532 9.8651C7.77956 9.8651 8.1594 10.2426 8.1594 10.7041V11.7458C8.1594 12.1444 8.48296 12.473 8.89093 12.473H9.50992C9.91085 12.473 10.2414 12.1513 10.2414 11.7458V10.7041C10.2414 10.3056 9.91788 9.97697 9.50992 9.97697H8.89093C7.56151 9.97697 6.47124 8.90027 6.47124 7.57187V6.53013C6.47124 5.3905 7.27312 4.43265 8.34931 4.18795V3.62163C8.34931 3.16019 8.72915 2.78264 9.19339 2.78264C9.65763 2.78264 10.0375 3.16019 10.0375 3.62163V4.18795C11.1137 4.43965 11.9226 5.39749 11.9226 6.53712Z" fill="white"/>
</svg>
