<svg width="22" height="34" viewBox="0 0 22 34" fill="none" xmlns="http://www.w3.org/2000/svg">
<path d="M11 0C4.95829 0 0.0429688 4.94507 0.0429688 11.0234C0.0429688 16.0528 3.02747 20.3111 5.91368 24.4292C9.6238 29.7228 9.57439 30.0414 11 34C12.4184 30.0615 12.3658 29.7377 16.0863 24.4292C18.9725 20.3111 21.957 16.0528 21.957 11.0234C21.957 4.94507 17.0417 0 11 0ZM14.4549 23.2859C13.1668 25.1238 11.9299 26.8886 11 28.6679C10.0701 26.8886 8.8333 25.1238 7.54508 23.2859C4.83624 19.4208 2.03516 15.4242 2.03516 11.0234C2.03516 6.04357 6.05679 1.99219 11 1.99219C15.9432 1.99219 19.9648 6.04357 19.9648 11.0234C19.9648 15.4242 17.1638 19.4208 14.4549 23.2859Z" fill="white"/>
<path d="M10.0039 10.0273H11.9961V12.0195H10.0039V10.0273Z" fill="white"/>
<path d="M15.9793 11.0234C15.9793 10.4724 15.888 9.94261 15.722 9.44669L17.5353 8.39973L16.5392 6.67449L14.7239 7.72258C14.0211 6.93036 13.0709 6.36252 11.9949 6.14318V4.05078H10.0027V6.14318C8.92674 6.36245 7.97653 6.93036 7.27375 7.72258L5.4584 6.67449L4.46231 8.39973L6.27567 9.44669C6.10965 9.94261 6.01834 10.4724 6.01834 11.0234C6.01834 11.5745 6.10965 12.1043 6.27567 12.6002L4.46231 13.6471L5.4584 15.3724L7.27375 14.3243C7.97653 15.1165 8.92674 15.6844 10.0027 15.9037V17.9961H11.9949V15.9037C13.0709 15.6844 14.0211 15.1165 14.7239 14.3243L16.5392 15.3724L17.5353 13.6471L15.722 12.6002C15.888 12.1043 15.9793 11.5745 15.9793 11.0234ZM10.9988 14.0117C9.35107 14.0117 8.01053 12.6712 8.01053 11.0234C8.01053 9.3757 9.35107 8.03516 10.9988 8.03516C12.6465 8.03516 13.9871 9.3757 13.9871 11.0234C13.9871 12.6712 12.6465 14.0117 10.9988 14.0117Z" fill="white"/>
</svg>
